HIERARCHY
ROOT hip
{
	OFFSET 0.000000 0.000000 0.000000
	CHANNELS 6 Xposition Yposition Zposition Zrotation Yrotation Xrotation 
	JOINT lhipjoint
	{
		OFFSET 0.000000 0.000000 0.000000
		CHANNELS 3 Zrotation Yrotation Xrotation
		JOINT lfemur
		{
			OFFSET 1.363060 -1.794630 0.839290
			CHANNELS 3 Zrotation Yrotation Xrotation
			JOINT ltibia
			{
				OFFSET 2.448110 -6.726130 0.000000
				CHANNELS 3 Zrotation Yrotation Xrotation
				JOINT lfoot
				{
					OFFSET 2.562200 -7.039590 0.000000
					CHANNELS 3 Zrotation Yrotation Xrotation
					JOINT ltoes
					{
						OFFSET 0.157640 -0.433110 2.322550
						CHANNELS 3 Zrotation Yrotation Xrotation
						End Site
						{
							OFFSET 0.000000 0.000000 0.000000
						}
					}
				}
			}
		}
	}
	JOINT rhipjoint
	{
		OFFSET 0.000000 0.000000 0.000000
		CHANNELS 3 Zrotation Yrotation Xrotation
		JOINT rfemur
		{
			OFFSET -1.305520 -1.794630 0.839290
			CHANNELS 3 Zrotation Yrotation Xrotation
			JOINT rtibia
			{
				OFFSET -2.542530 -6.985550 0.000000
				CHANNELS 3 Zrotation Yrotation Xrotation
				JOINT rfoot
				{
					OFFSET -2.568260 -7.056230 0.000000
					CHANNELS 3 Zrotation Yrotation Xrotation
					JOINT rtoes
					{
						OFFSET -0.164730 -0.452590 2.363150
						CHANNELS 3 Zrotation Yrotation Xrotation
						End Site
						{
							OFFSET 0.000000 0.000000 0.000000
						}
					}
				}
			}
		}
	}
	JOINT lowerback
	{
		OFFSET 0.000000 0.000000 0.000000
		CHANNELS 3 Zrotation Yrotation Xrotation
		JOINT upperback
		{
			OFFSET 0.028270 2.035590 -0.193380
			CHANNELS 3 Zrotation Yrotation Xrotation
			JOINT thorax
			{
				OFFSET 0.056720 2.048850 -0.042750
				CHANNELS 3 Zrotation Yrotation Xrotation
				JOINT lowerneck
				{
					OFFSET 0.000000 0.000000 0.000000
					CHANNELS 3 Zrotation Yrotation Xrotation
					JOINT upperneck
					{
						OFFSET -0.054170 1.746240 0.172020
						CHANNELS 3 Zrotation Yrotation Xrotation
						JOINT head
						{
							OFFSET 0.104070 1.761360 -0.123970
							CHANNELS 3 Zrotation Yrotation Xrotation
							End Site
							{
								OFFSET 0.000000 0.000000 0.000000
							}
						}
					}
				}
				JOINT lclavicle
				{
					OFFSET 0.000000 0.000000 0.000000
					CHANNELS 3 Zrotation Yrotation Xrotation
					JOINT lhumerus
					{
						OFFSET 3.362410 1.200890 -0.311210
						CHANNELS 3 Zrotation Yrotation Xrotation
						JOINT lradius
						{
							OFFSET 4.983000 -0.000000 -0.000000
							CHANNELS 3 Zrotation Yrotation Xrotation
							JOINT lwrist
							{
								OFFSET 3.483560 -0.000000 -0.000000
								CHANNELS 3 Zrotation Yrotation Xrotation
								JOINT lhand
								{
									OFFSET 0.000000 0.000000 0.000000
									CHANNELS 3 Zrotation Yrotation Xrotation
									JOINT lfingers
									{
										OFFSET 0.715260 -0.000000 -0.000000
										CHANNELS 3 Zrotation Yrotation Xrotation
										End Site
										{
											OFFSET 0.000000 0.000000 0.000000
										}
									}
								}
								JOINT lthumb
								{
									OFFSET 0.000000 0.000000 0.000000
									CHANNELS 3 Zrotation Yrotation Xrotation
									End Site
									{
										OFFSET 0.000000 0.000000 0.000000
									}
								}
							}
						}
					}
				}
				JOINT rclavicle
				{
					OFFSET 0.000000 0.000000 0.000000
					CHANNELS 3 Zrotation Yrotation Xrotation
					JOINT rhumerus
					{
						OFFSET -3.136600 1.374050 -0.404650
						CHANNELS 3 Zrotation Yrotation Xrotation
						JOINT rradius
						{
							OFFSET -5.241900 -0.000000 -0.000000
							CHANNELS 3 Zrotation Yrotation Xrotation
							JOINT rwrist
							{
								OFFSET -3.444170 -0.000000 -0.000000
								CHANNELS 3 Zrotation Yrotation Xrotation
								JOINT rhand
								{
									OFFSET 0.000000 0.000000 0.000000
									CHANNELS 3 Zrotation Yrotation Xrotation
									JOINT rfingers
									{
										OFFSET -0.622530 -0.000000 -0.000000
										CHANNELS 3 Zrotation Yrotation Xrotation
										End Site
										{
											OFFSET 0.000000 0.000000 0.000000
										}
									}
								}
								JOINT rthumb
								{
									OFFSET 0.000000 0.000000 0.000000
									CHANNELS 3 Zrotation Yrotation Xrotation
									End Site
									{
										OFFSET 0.000000 0.000000 0.000000
									}
								}
							}
						}
					}
				}
			}
		}
	}
}
MOTION
Frames: 8
Frame Time: 0.008333
0.299958 18.007524 1.982615 -174.678684 -7.536855 165.010376 7.618645 7.752143 2.261655 -16.274612 2.625868 7.366646 -0.248816 3.286902 18.092242 0.962968 0.377656 17.819798 0.824000 -5.791700 -16.181300 -9.994381 -7.806012 0.034630 33.087172 -1.848259 10.009929 -1.787384 -5.979777 25.519770 6.359032 -20.307496 -2.207045 -0.085700 1.888500 -5.197700 3.328445 -0.767125 9.848988 1.211612 -1.849860 0.147636 2.226844 -1.720338 10.116064 -7.409262 -5.833508 -12.726731 7.810575 -7.767168 4.084938 4.327000 -3.455300 2.990500 1.758137 -0.341951 3.330582 -71.679363 0.152213 32.928822 98.242878 -59.444411 -62.663446 -1.192273 1.381772 -71.644207 20.822554 -13.341914 -5.393400 -7.125000 0.000000 0.000000 -5.186400 13.998600 3.793700 -1.513926 1.006578 3.228394 76.983894 -7.432650 30.571637 -127.333270 47.147674 -91.691791 0.677268 -2.701524 0.145890 -46.609868 5.972086 -10.511700 7.125000 0.000000 0.000000 -14.022000 -15.906000 -9.948400 
0.298726 18.006703 1.984565 -174.682248 -7.539004 164.983590 7.618519 7.753036 2.260628 -16.280862 2.628488 7.382061 -0.245254 3.293740 18.115095 0.964421 0.371191 17.809962 0.824200 -5.792200 -16.182800 -9.994397 -7.805168 0.030924 33.069401 -1.869139 10.028746 -1.788956 -5.979835 25.524544 6.355557 -20.296720 -2.200326 -0.085700 1.888500 -5.197500 3.335072 -0.755236 9.883102 1.212273 -1.835347 0.152344 2.242088 -1.719025 10.118462 -7.455457 -5.880271 -12.713756 7.823431 -7.829282 4.032561 4.352200 -3.484100 2.968200 1.754373 -0.340082 3.336350 -71.626185 -0.354077 33.691919 98.426354 -59.360216 -62.715726 -1.241149 1.411733 -72.155448 21.328197 -13.490319 -5.609200 -7.125000 0.000000 0.000000 -4.872000 13.723500 3.590400 -1.528284 1.003140 3.224165 77.070433 -7.125556 31.630506 -127.271693 47.080226 -91.503610 0.685925 -2.711975 0.294981 -47.032552 5.721891 -10.455800 7.125000 0.000000 0.000000 -14.355300 -16.090900 -10.141200 
0.297598 18.005985 1.987131 -174.679685 -7.542026 164.946676 7.618649 7.754112 2.259170 -16.282959 2.625460 7.402630 -0.242078 3.299409 18.133318 0.962257 0.375984 17.805211 0.827400 -5.803300 -16.214900 -9.994953 -7.803892 0.026653 33.062750 -1.880919 10.053075 -1.791164 -5.981231 25.532461 6.358420 -20.304416 -2.195353 -0.086300 1.894400 -5.214000 3.343796 -0.747364 9.927574 1.213040 -1.827429 0.158455 2.253361 -1.721582 10.125129 -7.496198 -5.916539 -12.705096 7.839254 -7.879608 3.971889 4.377200 -3.507000 2.939800 1.754099 -0.337136 3.343411 -71.602438 -0.927456 34.507840 98.482966 -59.293531 -62.638429 -1.291977 1.452680 -72.653596 21.906179 -13.706993 -5.876700 -7.125000 0.000000 0.000000 -4.521400 13.356700 3.365400 -1.543589 0.999612 3.218609 77.162333 -6.812847 32.893335 -127.153101 47.022989 -91.232071 0.696686 -2.724228 0.497892 -47.555150 5.356118 -10.321400 7.125000 0.000000 0.000000 -14.781800 -16.400400 -10.360800 
0.295956 18.005061 1.989491 -174.659778 -7.551094 164.913337 7.618841 7.755854 2.258404 -16.265761 2.619160 7.417312 -0.238908 3.305094 18.151898 0.965400 0.366546 17.803844 0.827500 -5.803700 -16.216000 -9.995303 -7.803726 0.020334 33.062169 -1.936821 10.063008 -1.793665 -5.983393 25.540153 6.356453 -20.299000 -2.159627 -0.090300 1.938100 -5.334700 3.385853 -0.733966 9.957209 1.213232 -1.811190 0.166224 2.244277 -1.715078 10.144325 -7.521670 -5.968287 -12.700820 7.848283 -7.952400 3.913776 4.395400 -3.541000 2.914100 1.755186 -0.330465 3.351019 -71.578444 -1.564049 35.469027 98.487854 -59.231689 -62.493203 -1.351692 1.502963 -73.092508 22.660604 -13.941640 -6.218500 -7.125000 0.000000 0.000000 -4.060900 12.927400 3.057300 -1.557077 0.996067 3.212174 77.257413 -6.536543 34.323868 -127.027426 46.956587 -90.930750 0.708406 -2.734716 0.785126 -48.221024 4.899942 -10.141000 7.125000 0.000000 0.000000 -15.325600 -16.795600 -10.633800 
0.295237 18.004138 1.992262 -174.661887 -7.557864 164.879429 7.618519 7.756786 2.256275 -16.270054 2.620580 7.437582 -0.235714 3.310812 18.171352 0.967185 0.359528 17.800120 0.827600 -5.804200 -16.217200 -9.996029 -7.802414 0.014922 33.048401 -1.956214 10.087574 -1.795486 -5.983832 25.546134 6.356004 -20.296992 -2.157920 -0.089900 1.934000 -5.323400 3.377366 -0.726633 9.996328 1.214849 -1.806819 0.174247 2.277016 -1.724334 10.167561 -7.580585 -6.010753 -12.711031 7.865040 -8.007173 3.856102 4.422900 -3.565500 2.893500 1.757335 -0.324512 3.357737 -71.586238 -2.292615 36.467970 98.377862 -59.185025 -62.234531 -1.419671 1.559018 -73.520486 23.512764 -14.169439 -6.604300 -7.125000 0.000000 0.000000 -3.541800 12.471800 2.698600 -1.568322 0.988300 3.203060 77.304946 -6.241734 35.955192 -126.844856 46.905544 -90.550607 0.720989 -2.739395 1.125504 -49.015616 4.293110 -9.826100 7.125000 0.000000 0.000000 -15.993500 -17.377900 -10.922700 
0.293698 18.004548 1.995545 -174.660609 -7.579488 164.856049 7.617925 7.757096 2.256198 -16.280358 2.602644 7.443311 -0.234498 3.315299 18.182728 0.965916 0.364575 17.806899 0.830800 -5.815100 -16.248700 -9.995383 -7.801928 0.011589 33.028695 -1.990686 10.086355 -1.797963 -5.985842 25.555418 6.350976 -20.282427 -2.149210 -0.089400 1.928400 -5.307700 3.384169 -0.718835 10.035235 1.215411 -1.795914 0.177625 2.290980 -1.723731 10.157275 -7.616336 -6.055010 -12.684933 7.872293 -8.067606 3.796141 4.439400 -3.594100 2.862000 1.767976 -0.326348 3.364609 -71.585765 -3.066468 37.617292 98.217594 -59.141690 -61.910801 -1.497607 1.619742 -73.941085 24.525559 -14.393107 -7.061700 -7.125000 0.000000 0.000000 -2.922900 11.972500 2.256000 -1.584424 0.991000 3.193350 77.376813 -5.986071 37.659576 -126.582355 46.879812 -90.070328 0.731436 -2.746992 1.442823 -49.870680 3.747925 -9.591900 7.125000 0.000000 0.000000 -16.684400 -17.849800 -11.255600 
0.292774 18.004035 1.998829 -174.658071 -7.603602 164.828971 7.618832 7.757636 2.254857 -16.284331 2.591630 7.458121 -0.233443 3.318304 18.192739 0.969000 0.355905 17.814876 0.830900 -5.815300 -16.249500 -9.994485 -7.800922 0.007695 33.020104 -2.007992 10.094588 -1.800689 -5.988708 25.565949 6.355698 -20.296342 -2.149925 -0.089800 1.932800 -5.320000 3.392744 -0.711187 10.065872 1.214464 -1.787919 0.183478 2.292556 -1.722331 10.160226 -7.651523 -6.098667 -12.658335 7.887419 -8.131336 3.730425 4.463900 -3.623700 2.825900 1.773432 -0.322996 3.372154 -71.565013 -3.894516 38.846706 97.982461 -59.115023 -61.508715 -1.580359 1.676819 -74.320069 25.614397 -14.561077 -7.543900 -7.125000 0.000000 0.000000 -2.252200 11.502500 1.759300 -1.599105 0.990385 3.185384 77.412784 -5.715286 39.502900 -126.266962 46.869496 -89.517609 0.744147 -2.750593 1.709796 -50.813741 3.111224 -9.262700 7.125000 0.000000 0.000000 -17.458000 -18.436300 -11.590900 
0.291646 18.003625 2.002729 -174.675523 -7.627813 164.794064 7.619966 7.757968 2.253512 -16.315084 2.573386 7.487844 -0.232464 3.321337 18.202200 0.964823 0.366427 17.814247 0.831200 -5.816200 -16.252000 -9.991461 -7.801283 0.002724 32.966197 -2.066853 10.092605 -1.805344 -5.991739 25.578801 6.346450 -20.268625 -2.102851 -0.092600 1.962800 -5.402800 3.369718 -0.698792 10.123859 1.213016 -1.775446 0.188680 2.301906 -1.722966 10.154389 -7.665140 -6.140631 -12.642568 7.900694 -8.193985 3.664160 4.474200 -3.653700 2.793300 1.786083 -0.322464 3.377869 -71.569978 -4.785306 40.179315 97.799322 -59.074210 -61.139872 -1.674482 1.728598 -74.734976 26.786000 -14.647357 -8.044800 -7.125000 0.000000 0.000000 -1.522500 11.081700 1.201900 -1.610708 0.991688 3.174007 77.431578 -5.399740 41.421084 -125.793411 46.925307 -88.774983 0.752314 -2.763606 1.888686 -51.682016 2.566881 -9.011000 7.125000 0.000000 0.000000 -18.153900 -18.892300 -11.908200 
